<?xml version="1.0" encoding="utf-8"?>
<!-- Generator: Adobe Illustrator 25.2.0, SVG Export Plug-In . SVG Version: 6.00 Build 0)  -->
<svg version="1.1" id="Layer_1" xmlns="http://www.w3.org/2000/svg" xmlns:xlink="http://www.w3.org/1999/xlink" x="0px" y="0px"
	 width="100px" height="200px" viewBox="0 0 100 200" style="enable-background:new 0 0 100 200;" xml:space="preserve">
<style type="text/css">
	.st0{fill:#D6D6D6;}
	.st1{fill:#333333;}
	.st2{fill:#E5231F;}
	.st3{fill:#FFFFFF;}
</style>
<g>
	<path class="st0" d="M4.1,55.1H3.9c-1.5,0-3.1-0.8-3.8-2.2c0-0.2-0.1-0.3-0.1-0.5c0-0.5,0.4-0.8,0.8-0.8c0.2,0,0.5,0.1,0.8,0.4
		c0.5,0.8,1.5,1.4,2.4,1.4h0.1c1.4,0,2.2-0.8,2.2-1.5c0-3-5.8-0.7-5.8-5c0-2.2,2.2-2.8,3.7-2.8h0.1c1.5,0,2.5,0.7,2.9,0.9
		c0.2,0.2,0.3,0.4,0.3,0.6c0,0.4-0.3,0.8-0.8,0.8c-0.2,0-0.3-0.1-0.5-0.2c-0.5-0.2-1-0.6-2-0.6H4.1c-1.2,0-1.9,0.5-1.9,1.2
		C2.1,49.3,8,47.3,8,51.8v0.1C8,54,6,55.1,4.1,55.1"/>
	<path class="st0" d="M22.9,45.1l-2.6,9.4c-0.1,0.3-0.4,0.6-0.8,0.6h-0.2c-0.4,0-0.8-0.4-0.8-0.6c-0.5-1.9-2-7.3-2.2-7.6
		c-0.1,0.4-1.5,5.8-2.1,7.6c-0.1,0.3-0.4,0.6-0.8,0.6h-0.2c-0.5,0-0.8-0.3-0.8-0.6l-2.6-9.4c0-0.1-0.1-0.2-0.1-0.2
		c0-0.5,0.4-0.8,0.8-0.8c0.3,0,0.7,0.2,0.8,0.6l1.9,6.8l2-6.8c0.1-0.4,0.5-0.6,1-0.6l0,0c0.7,0,0.8,0.2,1,0.6l2.1,6.8l1.9-6.8
		c0.2-0.5,0.5-0.6,0.8-0.6c0.5,0,0.8,0.4,0.8,0.8C22.9,44.9,22.9,45,22.9,45.1"/>
	<path class="st0" d="M26.3,55.1c-0.5,0-0.8-0.3-0.8-0.8v-9.4c0-0.5,0.4-0.8,0.8-0.8s0.8,0.3,0.8,0.8v9.4
		C27.1,54.8,26.7,55.1,26.3,55.1 M26.2,41.6c-0.5,0-0.8-0.3-0.8-0.8v-0.5c0-0.5,0.4-0.8,0.8-0.8s0.8,0.3,0.8,0.8v0.5
		C27,41.2,26.7,41.6,26.2,41.6"/>
	<path class="st0" d="M33.6,55.1h-0.2c-1.5,0-3.1-0.8-3.8-2.2c-0.1-0.2-0.1-0.3-0.1-0.5c0-0.5,0.4-0.8,0.8-0.8
		c0.2,0,0.5,0.1,0.8,0.4c0.5,0.8,1.5,1.4,2.4,1.4h0.1c1.4,0,2.2-0.8,2.2-1.5c0-3-5.8-0.7-5.8-5c0-2.2,2.2-2.8,3.7-2.8h0.1
		c1.5,0,2.5,0.7,2.9,0.9c0.2,0.2,0.3,0.4,0.3,0.6c0,0.4-0.3,0.8-0.8,0.8c-0.2,0-0.3-0.1-0.5-0.2c-0.5-0.2-1-0.6-2-0.6h-0.1
		c-1.2,0-1.9,0.5-1.9,1.2c-0.1,2.5,5.8,0.5,5.8,4.9v0.1C37.6,53.9,35.6,55.1,33.6,55.1"/>
	<path class="st0" d="M43.7,55h-0.2c-1.5,0-3.1-0.8-3.8-2.2c-0.1-0.2-0.1-0.3-0.1-0.5c0-0.5,0.4-0.8,0.8-0.8c0.2,0,0.5,0.1,0.8,0.4
		c0.5,0.8,1.5,1.4,2.4,1.4h0.1c1.4,0,2.2-0.8,2.2-1.5c0-3-5.8-0.7-5.8-5c0-2.2,2.2-2.8,3.7-2.8h0.1c1.5,0,2.5,0.7,2.9,0.9
		c0.2,0.2,0.3,0.4,0.3,0.6c0,0.4-0.3,0.8-0.8,0.8c-0.2,0-0.3-0.1-0.5-0.2c-0.5-0.2-1-0.6-2-0.6h-0.1c-1.2,0-1.9,0.5-1.9,1.2
		c-0.1,2.5,5.8,0.5,5.8,4.9v0.1C47.5,53.9,45.5,55,43.7,55"/>
	<path class="st0" d="M68.4,54.9c-0.5,0-0.8-0.3-0.8-0.8v-6.6c0-1.2-0.8-1.8-1.9-1.8h-0.2c-1.1,0-1.9,0.8-1.9,1.9v6.5
		c0,0.6-0.4,0.9-0.8,0.9c-0.5,0-0.8-0.3-0.8-0.9v-6.5c0-1.2-0.8-1.9-1.9-1.9h-0.2c-1,0-1.9,0.7-1.9,1.7v6.8c0,0.5-0.5,0.8-0.8,0.8
		c-0.5,0-0.8-0.3-0.8-0.8v-9.4c0-0.5,0.5-0.8,0.8-0.8c0.4,0,0.8,0.2,0.8,0.7c0.4-0.4,1.2-0.7,1.9-0.7h0.2c1.2,0,2.1,0.5,2.8,1.3
		c0.7-0.8,1.7-1.3,2.8-1.3h0.2c1.9,0,3.6,1.1,3.6,3.5V54C69.2,54.7,68.7,54.9,68.4,54.9"/>
	<path class="st0" d="M77.3,49.5c-1.7,0.5-4,0.4-4,1.9c0,0.2,0,0.1,0,0.2c0,1,0.8,1.5,1.9,1.5h0.2c1.1,0,1.9-0.8,1.9-1.9L77.3,49.5z
		 M79.5,54.9c-0.1,0-0.1,0-0.2,0c-0.8-0.1-1.2-0.5-1.5-0.8c-0.6,0.5-1.5,0.9-2.4,0.9h-0.2c-1.8,0-3.6-1.2-3.6-3.2c0-0.1,0-0.2,0-0.2
		c0.2-3.5,5.1-2.9,5.7-3.7c0.1-0.1,0.1-0.2,0.1-0.4c0-1.3-0.8-1.8-1.8-1.8h-0.2c-0.9,0-1.4,0.4-1.8,1.2c-0.2,0.3-0.5,0.5-0.8,0.5
		c-0.5,0-0.8-0.3-0.8-0.8c0-0.2,0-0.2,0.1-0.4c0.7-1.6,2.2-2.1,3.3-2.1h0.2c2,0,3.5,1.5,3.5,3.5v5.2c0,0.4,0.2,0.7,0.6,0.8
		c0.5,0.1,0.7,0.5,0.7,0.8C80.3,54.5,80,54.9,79.5,54.9"/>
	<path class="st0" d="M87.9,47.3c0-1-0.9-1.7-1.9-1.7h-0.2c-1.1,0-1.9,0.8-1.9,1.9v3.8c0,1.1,0.8,1.9,1.9,1.9h0.2
		c1,0,1.9-0.7,1.9-1.8V47.3z M88.7,54.9c-0.4,0-0.8-0.2-0.8-0.7c-0.3,0.3-0.9,0.7-1.9,0.7h-0.2c-2,0-3.6-1.6-3.6-3.6v-3.8
		c0-2,1.6-3.6,3.6-3.6h0.2c0.8,0,1.5,0.2,1.9,0.8v-4.5c0-0.5,0.4-0.8,0.8-0.8c0.5,0,0.8,0.3,0.8,0.8v14.1
		C89.6,54.6,89.2,54.9,88.7,54.9"/>
	<path class="st0" d="M98.2,47.5c0-1.1-0.9-1.9-1.9-1.9H96c-1.1,0-1.9,0.8-1.9,1.9v1.2h4L98.2,47.5z M99,50.2h-4.8v1.2
		c0,1.1,0.8,1.9,1.9,1.9h0.2c0.8,0,1.5-0.5,1.8-1.2c0.2-0.4,0.5-0.5,0.8-0.5c0.5,0,0.8,0.4,0.8,0.8c0,0.1,0,0.2-0.1,0.4
		c-0.5,1.2-1.8,2.2-3.2,2.2h-0.2c-2,0-3.6-1.6-3.6-3.6v-3.8c0-2,1.6-3.6,3.6-3.6h0.2c2,0,3.6,1.5,3.6,3.6v1.8
		C99.8,49.7,99.5,50.2,99,50.2"/>
	<path class="st0" d="M4.1,76.4H4c-1.5,0-3.1-0.8-3.8-2.2c-0.1-0.2-0.1-0.3-0.1-0.5c0-0.5,0.4-0.8,0.8-0.8c0.3,0,0.5,0.1,0.8,0.4
		c0.5,0.8,1.5,1.4,2.4,1.4h0.1c1.4,0,2.2-0.8,2.2-1.5c0-3-5.8-0.7-5.8-5c0-2.2,2.2-2.8,3.7-2.8h0.1c1.5,0,2.5,0.7,2.9,0.9
		c0.2,0.2,0.3,0.4,0.3,0.6c0,0.4-0.3,0.8-0.8,0.8c-0.2,0-0.3-0.1-0.5-0.2c-0.5-0.2-1-0.6-2-0.6H4.1c-1.2,0-1.9,0.5-1.9,1.2
		c0,2.5,5.8,0.5,5.8,4.9v0.1C8,75.3,6,76.4,4.1,76.4"/>
	<path class="st0" d="M16,69c0-1.1-0.8-1.9-1.9-1.9h-0.2c-1.1,0-1.9,0.8-1.9,1.9v3.8c0,1.1,0.8,1.9,1.9,1.9h0.2
		c1.1,0,1.9-0.8,1.9-1.9V69z M14.1,76.4h-0.2c-2,0-3.6-1.6-3.6-3.6V69c0-2,1.6-3.6,3.6-3.6h0.2c2,0,3.6,1.6,3.6,3.6v3.8
		C17.7,74.7,16.1,76.4,14.1,76.4"/>
	<path class="st0" d="M23.9,62.4c-0.7,0-1.2,0.5-1.2,1.2v1.8h1.1c0.6,0,0.8,0.4,0.8,0.8c0,0.5-0.3,0.8-0.8,0.8h-1.1v8.4
		c0,0.5-0.5,0.8-0.8,0.8c-0.5,0-0.8-0.3-0.8-0.8v-8.4h-0.5c-0.5,0-0.8-0.4-0.8-0.8c0-0.5,0.3-0.8,0.8-0.8H21v-1.8
		c0-1.7,1.2-2.9,2.8-3c0.5,0,0.8,0.5,0.8,0.8C24.7,61.9,24.4,62.4,23.9,62.4"/>
	<path class="st0" d="M31.1,76.3c-1.6,0-2.9-1.3-2.9-2.9v-6.3h-0.8c-0.5,0-0.8-0.5-0.8-0.8c0-0.5,0.3-0.8,0.8-0.8h0.8v-3.9
		c0-0.5,0.4-0.8,0.8-0.8c0.5,0,0.8,0.3,0.8,0.8v3.9h1.2c0.5,0,0.8,0.5,0.8,0.8c0,0.5-0.3,0.8-0.8,0.8h-1.2v6.3
		c0,0.8,0.6,1.2,1.3,1.3c0.5,0,0.8,0.5,0.8,0.8C32,75.9,31.7,76.3,31.1,76.3"/>
	<path class="st0" d="M47.1,66.4l-2.6,9.4c-0.1,0.3-0.4,0.6-0.8,0.6h-0.2c-0.4,0-0.8-0.4-0.8-0.6c-0.5-1.9-2-7.3-2.2-7.6
		c-0.1,0.4-1.5,5.8-2.1,7.6c-0.1,0.3-0.4,0.6-0.8,0.6h-0.2c-0.5,0-0.8-0.3-0.8-0.6l-2.6-9.4c0-0.1-0.1-0.2-0.1-0.2
		c0-0.5,0.4-0.8,0.8-0.8c0.3,0,0.7,0.2,0.8,0.6l1.9,6.8l2-6.8c0.1-0.4,0.5-0.6,1-0.6l0,0c0.7,0,0.8,0.2,1,0.6l2.1,6.8l1.9-6.8
		c0.2-0.5,0.5-0.6,0.8-0.6c0.5,0,0.8,0.4,0.8,0.8C47.1,66.2,47.1,66.2,47.1,66.4"/>
	<path class="st0" d="M54.7,70.9c-1.7,0.5-4,0.4-4,1.9c0,0.2,0,0.1,0,0.2c0,1,0.8,1.5,1.9,1.5h0.2c1.1,0,1.9-0.8,1.9-1.9L54.7,70.9z
		 M56.8,76.3c-0.1,0-0.1,0-0.2,0c-0.8-0.1-1.2-0.5-1.5-0.8c-0.6,0.5-1.5,0.9-2.4,0.9h-0.2c-1.8,0-3.6-1.2-3.6-3.2c0-0.1,0-0.2,0-0.2
		c0.2-3.5,5.1-2.9,5.7-3.7c0.1-0.1,0.1-0.3,0.1-0.4c0-1.3-0.8-1.8-1.8-1.8h-0.2c-0.9,0-1.4,0.4-1.8,1.2c-0.2,0.3-0.5,0.5-0.8,0.5
		c-0.5,0-0.8-0.3-0.8-0.8c0-0.2,0-0.3,0.1-0.4c0.7-1.6,2.2-2.1,3.3-2.1h0.2c2,0,3.5,1.5,3.5,3.5V74c0,0.4,0.2,0.7,0.6,0.8
		c0.5,0.1,0.7,0.5,0.7,0.8C57.7,75.9,57.4,76.3,56.8,76.3"/>
	<path class="st0" d="M64.8,67.7c-0.2,0-0.5-0.1-0.7-0.3c-0.2-0.2-0.5-0.5-1-0.5c-1.3,0-1.5,0.8-1.5,1.5v7c0,0.6-0.4,0.9-0.8,0.9
		c-0.5,0-0.8-0.3-0.8-0.9l-0.1-9.4c0-0.5,0.5-0.8,0.8-0.8c0.3,0,0.6,0.2,0.8,0.5c0,0,0.5-0.5,1.6-0.5c0.8,0,1.8,0.3,2.3,1.1
		c0.2,0.2,0.2,0.4,0.2,0.6C65.7,67.4,65.3,67.7,64.8,67.7"/>
	<path class="st0" d="M73.3,68.8c0-1.1-0.9-1.9-1.9-1.9h-0.2c-1.1,0-1.9,0.8-1.9,1.9V70h4L73.3,68.8z M74.1,71.5h-4.8v1.2
		c0,1.1,0.8,1.9,1.9,1.9h0.2c0.8,0,1.5-0.5,1.8-1.2c0.2-0.4,0.5-0.5,0.8-0.5c0.5,0,0.8,0.4,0.8,0.8c0,0.1,0,0.2-0.1,0.4
		c-0.5,1.2-1.8,2.2-3.2,2.2h-0.2c-2,0-3.6-1.6-3.6-3.6v-3.8c0-2,1.6-3.6,3.6-3.6h0.2c2,0,3.6,1.5,3.6,3.6v1.8
		C75,71.1,74.6,71.5,74.1,71.5"/>
</g>
<g>
	<path class="st0" d="M26.4,3H15.9c-0.3-0.8-0.7-1.7-0.7-1.7c-0.3-0.8-1.2-1.3-2-1.3h-9c-0.8,0-1.6,0.5-2,1.3L0.2,6.1
		C0.1,6.4,0,6.7,0,7v13.6c0,1.2,0.9,2.2,2.2,2.2h24.3c1.2,0,2.2-0.9,2.2-2.2V5.2C28.6,4,27.6,3,26.4,3"/>
	<path class="st1" d="M18.3,13.7h-2.9v2.9c0,0.7-0.5,1.1-1.1,1.1c-0.5,0-1.1-0.4-1.1-1.1v-2.9h-2.9c-0.7,0-1.1-0.5-1.1-1.1
		c0-0.5,0.4-1.1,1.1-1.1h2.9V8.6c0-0.7,0.5-1.1,1.1-1.1c0.5,0,1.1,0.4,1.1,1.1v2.9h2.9c0.7,0,1.1,0.5,1.1,1.1
		C19.4,13.1,19,13.7,18.3,13.7"/>
</g>
<g>
	<path class="st2" d="M4.1,155.1H3.9c-1.5,0-3.1-0.8-3.8-2.2c0-0.2-0.1-0.3-0.1-0.5c0-0.5,0.4-0.8,0.8-0.8c0.2,0,0.5,0.1,0.8,0.4
		c0.5,0.8,1.5,1.4,2.4,1.4h0.1c1.4,0,2.2-0.8,2.2-1.5c0-3-5.8-0.7-5.8-5c0-2.2,2.2-2.8,3.7-2.8h0.1c1.5,0,2.5,0.7,2.9,0.9
		c0.2,0.2,0.3,0.4,0.3,0.6c0,0.4-0.3,0.8-0.8,0.8c-0.2,0-0.3-0.1-0.5-0.2c-0.5-0.2-1-0.6-2-0.6H4.1c-1.2,0-1.9,0.5-1.9,1.2
		c-0.1,2.5,5.8,0.5,5.8,4.9v0.1C8,154,6,155.1,4.1,155.1"/>
	<path class="st2" d="M22.9,145.1l-2.6,9.4c-0.1,0.3-0.4,0.6-0.8,0.6h-0.2c-0.4,0-0.8-0.4-0.8-0.6c-0.5-1.9-2-7.3-2.2-7.6
		c-0.1,0.4-1.5,5.8-2.1,7.6c-0.1,0.3-0.4,0.6-0.8,0.6h-0.2c-0.5,0-0.8-0.3-0.8-0.6l-2.6-9.4c0-0.1-0.1-0.2-0.1-0.2
		c0-0.5,0.4-0.8,0.8-0.8c0.3,0,0.7,0.2,0.8,0.6l1.9,6.8l2-6.8c0.1-0.4,0.5-0.6,1-0.6l0,0c0.7,0,0.8,0.2,1,0.6l2.1,6.8l1.9-6.8
		c0.2-0.5,0.5-0.6,0.8-0.6c0.5,0,0.8,0.4,0.8,0.8C22.9,144.9,22.9,145,22.9,145.1"/>
	<path class="st2" d="M26.3,155.1c-0.5,0-0.8-0.3-0.8-0.8v-9.4c0-0.5,0.4-0.8,0.8-0.8s0.8,0.3,0.8,0.8v9.4
		C27.1,154.8,26.7,155.1,26.3,155.1 M26.2,141.6c-0.5,0-0.8-0.3-0.8-0.8v-0.5c0-0.5,0.4-0.8,0.8-0.8s0.8,0.3,0.8,0.8v0.5
		C27,141.2,26.7,141.6,26.2,141.6"/>
	<path class="st2" d="M33.6,155.1h-0.2c-1.5,0-3.1-0.8-3.8-2.2c-0.1-0.2-0.1-0.3-0.1-0.5c0-0.5,0.4-0.8,0.8-0.8
		c0.2,0,0.5,0.1,0.8,0.4c0.5,0.8,1.5,1.4,2.4,1.4h0.1c1.4,0,2.2-0.8,2.2-1.5c0-3-5.8-0.7-5.8-5c0-2.2,2.2-2.8,3.7-2.8h0.1
		c1.5,0,2.5,0.7,2.9,0.9c0.2,0.2,0.3,0.4,0.3,0.6c0,0.4-0.3,0.8-0.8,0.8c-0.2,0-0.3-0.1-0.5-0.2c-0.5-0.2-1-0.6-2-0.6h-0.1
		c-1.2,0-1.9,0.5-1.9,1.2c-0.1,2.5,5.8,0.5,5.8,4.9v0.1C37.6,153.9,35.6,155.1,33.6,155.1"/>
	<path class="st2" d="M43.7,155h-0.2c-1.5,0-3.1-0.8-3.8-2.2c-0.1-0.2-0.1-0.3-0.1-0.5c0-0.5,0.4-0.8,0.8-0.8c0.2,0,0.5,0.1,0.8,0.4
		c0.5,0.8,1.5,1.4,2.4,1.4h0.1c1.4,0,2.2-0.8,2.2-1.5c0-3-5.8-0.7-5.8-5c0-2.2,2.2-2.8,3.7-2.8h0.1c1.5,0,2.5,0.7,2.9,0.9
		c0.2,0.2,0.3,0.4,0.3,0.6c0,0.4-0.3,0.8-0.8,0.8c-0.2,0-0.3-0.1-0.5-0.2c-0.5-0.2-1-0.6-2-0.6h-0.1c-1.2,0-1.9,0.5-1.9,1.2
		c-0.1,2.5,5.8,0.5,5.8,4.9v0.1C47.5,153.9,45.5,155,43.7,155"/>
	<path class="st2" d="M68.4,154.9c-0.5,0-0.8-0.3-0.8-0.8v-6.6c0-1.2-0.8-1.8-1.9-1.8h-0.2c-1.1,0-1.9,0.8-1.9,1.9v6.5
		c0,0.6-0.4,0.9-0.8,0.9c-0.5,0-0.8-0.3-0.8-0.9v-6.5c0-1.2-0.8-1.9-1.9-1.9h-0.2c-1,0-1.9,0.7-1.9,1.7v6.8c0,0.5-0.5,0.8-0.8,0.8
		c-0.5,0-0.8-0.3-0.8-0.8v-9.4c0-0.5,0.5-0.8,0.8-0.8c0.4,0,0.8,0.2,0.8,0.7c0.4-0.4,1.2-0.7,1.9-0.7h0.2c1.2,0,2.1,0.5,2.8,1.3
		c0.7-0.8,1.7-1.3,2.8-1.3h0.2c1.9,0,3.6,1.1,3.6,3.5v6.6C69.2,154.7,68.7,154.9,68.4,154.9"/>
	<path class="st2" d="M77.3,149.5c-1.7,0.5-4,0.4-4,1.9c0,0.2,0,0.1,0,0.2c0,1,0.8,1.5,1.9,1.5h0.2c1.1,0,1.9-0.8,1.9-1.9
		L77.3,149.5z M79.5,154.9c-0.1,0-0.1,0-0.2,0c-0.8-0.1-1.2-0.5-1.5-0.8c-0.6,0.5-1.5,0.9-2.4,0.9h-0.2c-1.8,0-3.6-1.2-3.6-3.2
		c0-0.1,0-0.2,0-0.2c0.2-3.5,5.1-2.9,5.7-3.7c0.1-0.1,0.1-0.2,0.1-0.4c0-1.3-0.8-1.8-1.8-1.8h-0.2c-0.9,0-1.4,0.4-1.8,1.2
		c-0.2,0.3-0.5,0.5-0.8,0.5c-0.5,0-0.8-0.3-0.8-0.8c0-0.2,0-0.2,0.1-0.4c0.7-1.6,2.2-2.1,3.3-2.1h0.2c2,0,3.5,1.5,3.5,3.5v5.2
		c0,0.4,0.2,0.7,0.6,0.8c0.5,0.1,0.7,0.5,0.7,0.8C80.3,154.5,80,154.9,79.5,154.9"/>
	<path class="st2" d="M87.9,147.3c0-1-0.9-1.7-1.9-1.7h-0.2c-1.1,0-1.9,0.8-1.9,1.9v3.8c0,1.1,0.8,1.9,1.9,1.9h0.2
		c1,0,1.9-0.7,1.9-1.8V147.3z M88.7,154.9c-0.4,0-0.8-0.2-0.8-0.7c-0.3,0.3-0.9,0.7-1.9,0.7h-0.2c-2,0-3.6-1.6-3.6-3.6v-3.8
		c0-2,1.6-3.6,3.6-3.6h0.2c0.8,0,1.5,0.2,1.9,0.8v-4.5c0-0.5,0.4-0.8,0.8-0.8c0.5,0,0.8,0.3,0.8,0.8v14.1
		C89.6,154.6,89.2,154.9,88.7,154.9"/>
	<path class="st2" d="M98.2,147.5c0-1.1-0.9-1.9-1.9-1.9H96c-1.1,0-1.9,0.8-1.9,1.9v1.2h4L98.2,147.5z M99,150.2h-4.8v1.2
		c0,1.1,0.8,1.9,1.9,1.9h0.2c0.8,0,1.5-0.5,1.8-1.2c0.2-0.4,0.5-0.5,0.8-0.5c0.5,0,0.8,0.4,0.8,0.8c0,0.1,0,0.2-0.1,0.4
		c-0.5,1.2-1.8,2.2-3.2,2.2h-0.2c-2,0-3.6-1.6-3.6-3.6v-3.8c0-2,1.6-3.6,3.6-3.6h0.2c2,0,3.6,1.5,3.6,3.6v1.8
		C99.8,149.7,99.5,150.2,99,150.2"/>
	<path class="st2" d="M4.1,176.4H4c-1.5,0-3.1-0.8-3.8-2.2c-0.1-0.2-0.1-0.3-0.1-0.5c0-0.5,0.4-0.8,0.8-0.8c0.3,0,0.5,0.1,0.8,0.4
		c0.5,0.8,1.5,1.4,2.4,1.4h0.1c1.4,0,2.2-0.8,2.2-1.5c0-3-5.8-0.7-5.8-5c0-2.2,2.2-2.8,3.7-2.8h0.1c1.5,0,2.5,0.7,2.9,0.9
		c0.2,0.2,0.3,0.4,0.3,0.6c0,0.4-0.3,0.8-0.8,0.8c-0.2,0-0.3-0.1-0.5-0.2c-0.5-0.2-1-0.6-2-0.6H4.1c-1.2,0-1.9,0.5-1.9,1.2
		c0,2.5,5.8,0.5,5.8,4.9v0.1C8,175.3,6,176.4,4.1,176.4"/>
	<path class="st2" d="M16,169c0-1.1-0.8-1.9-1.9-1.9h-0.2c-1.1,0-1.9,0.8-1.9,1.9v3.8c0,1.1,0.8,1.9,1.9,1.9h0.2
		c1.1,0,1.9-0.8,1.9-1.9V169z M14.1,176.4h-0.2c-2,0-3.6-1.6-3.6-3.6V169c0-2,1.6-3.6,3.6-3.6h0.2c2,0,3.6,1.6,3.6,3.6v3.8
		C17.7,174.7,16.1,176.4,14.1,176.4"/>
	<path class="st2" d="M23.9,162.4c-0.7,0-1.2,0.5-1.2,1.2v1.8h1.1c0.6,0,0.8,0.4,0.8,0.8s-0.3,0.8-0.8,0.8h-1.1v8.4
		c0,0.5-0.5,0.8-0.8,0.8c-0.5,0-0.8-0.3-0.8-0.8v-8.4h-0.5c-0.5,0-0.8-0.4-0.8-0.8s0.3-0.8,0.8-0.8H21v-1.8c0-1.7,1.2-2.9,2.8-3
		c0.5,0,0.8,0.5,0.8,0.8C24.7,161.9,24.4,162.4,23.9,162.4"/>
	<path class="st2" d="M31.1,176.3c-1.6,0-2.9-1.3-2.9-2.9v-6.3h-0.8c-0.5,0-0.8-0.5-0.8-0.8c0-0.5,0.3-0.8,0.8-0.8h0.8v-3.9
		c0-0.5,0.4-0.8,0.8-0.8c0.5,0,0.8,0.3,0.8,0.8v3.9h1.2c0.5,0,0.8,0.5,0.8,0.8c0,0.5-0.3,0.8-0.8,0.8h-1.2v6.3
		c0,0.8,0.6,1.2,1.3,1.3c0.5,0,0.8,0.5,0.8,0.8C32,175.9,31.7,176.3,31.1,176.3"/>
	<path class="st2" d="M47.1,166.4l-2.6,9.4c-0.1,0.3-0.4,0.6-0.8,0.6h-0.2c-0.4,0-0.8-0.4-0.8-0.6c-0.5-1.9-2-7.3-2.2-7.6
		c-0.1,0.4-1.5,5.8-2.1,7.6c-0.1,0.3-0.4,0.6-0.8,0.6h-0.2c-0.5,0-0.8-0.3-0.8-0.6l-2.6-9.4c0-0.1-0.1-0.2-0.1-0.2
		c0-0.5,0.4-0.8,0.8-0.8c0.3,0,0.7,0.2,0.8,0.6l1.9,6.8l2-6.8c0.1-0.4,0.5-0.6,1-0.6l0,0c0.7,0,0.8,0.2,1,0.6l2.1,6.8l1.9-6.8
		c0.2-0.5,0.5-0.6,0.8-0.6c0.5,0,0.8,0.4,0.8,0.8C47.1,166.2,47.1,166.2,47.1,166.4"/>
	<path class="st2" d="M54.7,170.9c-1.7,0.5-4,0.4-4,1.9c0,0.2,0,0.1,0,0.2c0,1,0.8,1.5,1.9,1.5h0.2c1.1,0,1.9-0.8,1.9-1.9
		L54.7,170.9z M56.8,176.3c-0.1,0-0.1,0-0.2,0c-0.8-0.1-1.2-0.5-1.5-0.8c-0.6,0.5-1.5,0.9-2.4,0.9h-0.2c-1.8,0-3.6-1.2-3.6-3.2
		c0-0.1,0-0.2,0-0.2c0.2-3.5,5.1-2.9,5.7-3.7c0.1-0.1,0.1-0.3,0.1-0.4c0-1.3-0.8-1.8-1.8-1.8h-0.2c-0.9,0-1.4,0.4-1.8,1.2
		c-0.2,0.3-0.5,0.5-0.8,0.5c-0.5,0-0.8-0.3-0.8-0.8c0-0.2,0-0.3,0.1-0.4c0.7-1.6,2.2-2.1,3.3-2.1h0.2c2,0,3.5,1.5,3.5,3.5v5.2
		c0,0.4,0.2,0.7,0.6,0.8c0.5,0.1,0.7,0.5,0.7,0.8C57.7,175.9,57.4,176.3,56.8,176.3"/>
	<path class="st2" d="M64.8,167.7c-0.2,0-0.5-0.1-0.7-0.3c-0.2-0.2-0.5-0.5-1-0.5c-1.3,0-1.5,0.8-1.5,1.5v7c0,0.6-0.4,0.9-0.8,0.9
		c-0.5,0-0.8-0.3-0.8-0.9l-0.1-9.4c0-0.5,0.5-0.8,0.8-0.8c0.3,0,0.6,0.2,0.8,0.5c0,0,0.5-0.5,1.6-0.5c0.8,0,1.8,0.3,2.3,1.1
		c0.2,0.2,0.2,0.4,0.2,0.6C65.7,167.4,65.3,167.7,64.8,167.7"/>
	<path class="st2" d="M73.3,168.8c0-1.1-0.9-1.9-1.9-1.9h-0.2c-1.1,0-1.9,0.8-1.9,1.9v1.2h4L73.3,168.8z M74.1,171.5h-4.8v1.2
		c0,1.1,0.8,1.9,1.9,1.9h0.2c0.8,0,1.5-0.5,1.8-1.2c0.2-0.4,0.5-0.5,0.8-0.5c0.5,0,0.8,0.4,0.8,0.8c0,0.1,0,0.2-0.1,0.4
		c-0.5,1.2-1.8,2.2-3.2,2.2h-0.2c-2,0-3.6-1.6-3.6-3.6v-3.8c0-2,1.6-3.6,3.6-3.6h0.2c2,0,3.6,1.5,3.6,3.6v1.8
		C75,171.1,74.6,171.5,74.1,171.5"/>
</g>
<g>
	<path class="st2" d="M26.4,103H15.9c-0.3-0.8-0.7-1.7-0.7-1.7c-0.3-0.8-1.2-1.3-2-1.3h-9c-0.8,0-1.6,0.5-2,1.3l-2.1,4.8
		C0.1,106.4,0,106.7,0,107v13.6c0,1.2,0.9,2.2,2.2,2.2h24.3c1.2,0,2.2-0.9,2.2-2.2v-15.4C28.6,104,27.6,103,26.4,103"/>
	<path class="st3" d="M18.3,113.7h-2.9v2.9c0,0.7-0.5,1.1-1.1,1.1c-0.5,0-1.1-0.4-1.1-1.1v-2.9h-2.9c-0.7,0-1.1-0.5-1.1-1.1
		c0-0.5,0.4-1.1,1.1-1.1h2.9v-2.9c0-0.7,0.5-1.1,1.1-1.1c0.5,0,1.1,0.4,1.1,1.1v2.9h2.9c0.7,0,1.1,0.5,1.1,1.1
		C19.4,113.1,19,113.7,18.3,113.7"/>
</g>
</svg>
