<?xml version="1.0" encoding="utf-8"?>
<!-- Generator: Adobe Illustrator 24.2.1, SVG Export Plug-In . SVG Version: 6.00 Build 0)  -->
<svg version="1.1" id="Layer_1" xmlns="http://www.w3.org/2000/svg" xmlns:xlink="http://www.w3.org/1999/xlink" x="0px" y="0px"
	 width="220px" height="24px" viewBox="0 0 220 24" style="enable-background:new 0 0 220 24;" xml:space="preserve">
<style type="text/css">
	.st0{fill:#2E1AA9;}
	.st1{fill:url(#SVGID_1_);}
</style>
<g>
	<polygon class="st0" points="0,0 0,22.8 4.7,22.8 4.7,10.3 17.9,23.2 18,23.2 18,0.4 13.3,0.4 13.3,12.8 0.1,0 	"/>
	<polygon class="st0" points="42.3,4.7 32.5,4.7 32.5,9.4 40,9.4 40,13.4 32.5,13.4 32.5,18.5 42.6,18.5 42.6,22.8 27.9,22.8 
		27.9,0.4 42.3,0.4 	"/>
	<g>
		<path class="st0" d="M53.9,11.6c0,4.2,2.8,7.3,6.8,7.3s6.8-3,6.8-7.3s-2.8-7.4-6.8-7.4C56.7,4.3,53.9,7.3,53.9,11.6 M72.2,11.6
			c0,6.7-4.9,11.5-11.5,11.5s-11.5-4.9-11.5-11.5C49.2,4.9,54.1,0,60.7,0S72.2,4.9,72.2,11.6"/>
	</g>
	<polygon class="st0" points="117.3,18.7 126.8,18.7 126.8,22.8 112.6,22.8 112.6,0.4 117.3,0.4 	"/>
	<g>
		<path class="st0" d="M151.1,14.7c0,5.1-3.1,8.4-9,8.4c-5.8,0-9-3.3-9-8.4V0.4h4.7v14c0,2.7,1.5,4.5,4.3,4.5s4.3-1.8,4.3-4.5v-14
			h4.7V14.7z"/>
	</g>
	<polygon class="st0" points="171.3,11.4 178.3,22.8 173,22.8 168,14.7 163.1,22.8 157.8,22.8 164.8,11.4 158.1,0.4 163.5,0.4 
		168,8.1 172.6,0.4 178,0.4 	"/>
	<polygon class="st0" points="185.3,0.4 185.3,22.8 200,22.8 200,18.5 190,18.5 190,13.4 197.4,13.4 197.4,9.4 190,9.4 190,4.7 
		199.8,4.7 199.8,0.4 	"/>
	
		<linearGradient id="SVGID_1_" gradientUnits="userSpaceOnUse" x1="76.1" y1="14.4" x2="105.3612" y2="14.4" gradientTransform="matrix(1 0 0 -1 0 26)">
		<stop  offset="0" style="stop-color:#2E1AA9;stop-opacity:0"/>
		<stop  offset="3.888502e-03" style="stop-color:#2E1AA9;stop-opacity:8.101046e-03"/>
		<stop  offset="0.48" style="stop-color:#2E1AA9"/>
	</linearGradient>
	<polygon class="st1" points="105.3,4.7 105.3,0.4 91.3,0.4 91.3,9.8 76.1,9.8 76.1,13.8 91.3,13.8 91.3,22.8 96,22.8 96,13.8 
		103,13.8 103,9.8 96,9.8 96,4.7 	"/>
</g>
</svg>
