<?xml version="1.0" standalone="no"?>
<!DOCTYPE svg PUBLIC "-//W3C//DTD SVG 20010904//EN"
 "http://www.w3.org/TR/2001/REC-SVG-20010904/DTD/svg10.dtd">
<svg version="1.0" xmlns="http://www.w3.org/2000/svg"
 width="512.000000pt" height="512.000000pt" viewBox="0 0 512.000000 512.000000"
 preserveAspectRatio="xMidYMid meet">
<metadata>
Created by potrace 1.14, written by Peter Selinger 2001-2017
</metadata>
<g transform="translate(0.000000,512.000000) scale(0.100000,-0.100000)"
fill="#000000" stroke="none">
<path d="M2380 5106 c-3 -2 -43 -7 -90 -10 -246 -18 -590 -119 -855 -250 -264
-132 -450 -264 -663 -471 l-123 -120 53 -5 c64 -6 281 -4 598 5 440 14 556 11
705 -20 393 -81 621 -336 609 -678 -9 -254 -147 -485 -384 -641 -36 -24 -77
-51 -93 -60 l-27 -17 62 -51 c34 -29 179 -168 323 -309 267 -264 322 -317 442
-429 553 -518 1050 -829 1428 -894 103 -18 271 -27 301 -15 40 14 189 288 269
493 39 98 89 254 101 311 2 11 7 34 11 50 4 17 7 32 8 35 1 3 5 25 9 50 5 25
11 56 13 70 35 187 39 588 8 775 -46 269 -99 456 -190 660 -133 302 -296 537
-539 781 -280 279 -597 478 -966 606 -47 16 -92 31 -100 33 -8 2 -60 15 -115
29 -89 24 -133 32 -255 51 -19 3 -51 8 -70 11 -46 7 -464 16 -470 10z"/>
<path d="M459 4003 c-32 -40 -62 -88 -124 -199 -139 -247 -236 -519 -285 -794
-28 -156 -35 -243 -35 -450 0 -215 6 -291 36 -455 95 -523 331 -969 713 -1350
343 -343 740 -564 1218 -679 58 -14 130 -29 160 -32 29 -4 55 -8 58 -9 44 -25
678 -25 720 0 3 2 28 6 55 9 168 23 456 110 637 193 288 134 510 286 733 505
173 169 172 157 12 158 -72 0 -148 2 -167 5 -19 2 -55 7 -80 10 -86 11 -206
37 -315 70 -111 34 -311 113 -352 140 -12 8 -26 15 -31 15 -37 0 -519 307
-582 370 -3 3 -34 27 -70 55 -36 27 -78 61 -95 76 -171 149 -247 220 -410 383
-105 105 -214 218 -244 251 -268 299 -337 368 -404 402 -48 25 -62 27 -177 28
l-125 0 -1 -435 c0 -239 4 -455 9 -480 19 -91 82 -139 212 -160 39 -7 79 -13
90 -15 16 -3 21 -13 23 -51 l2 -46 -107 7 c-60 4 -128 9 -153 11 -61 5 -637 5
-675 0 -16 -2 -80 -7 -141 -11 l-111 -7 3 42 c2 23 6 45 9 49 2 5 32 11 65 15
153 18 228 68 250 168 8 38 10 331 8 1058 -3 965 -4 1006 -22 1040 -37 68 -96
101 -214 119 -39 6 -73 11 -75 11 -2 0 -10 -8 -18 -17z"/>
<path d="M1381 4007 c-19 -7 -44 -25 -55 -40 -21 -28 -21 -38 -22 -523 l-1
-494 91 0 c442 1 740 252 711 599 -24 294 -225 459 -570 466 -72 2 -134 -1
-154 -8z"/>
</g>
</svg>
